<svg width="400" height="400" viewBox="0 0 400 400" fill="none" xmlns="http://www.w3.org/2000/svg">
<rect width="400" height="400" rx="80" fill="#049568"/>
<path d="M45.5794 172.165L38.2429 156.004L114.387 121.438L121.723 137.6L93.339 150.485L128.09 227.036L108.714 235.831L73.9636 159.28L45.5794 172.165ZM169.014 208.458L126.926 115.746L146.528 106.847L163.893 145.1L203.685 127.037L186.32 88.7836L205.877 79.9058L247.964 172.618L228.408 181.496L211.022 143.198L171.23 161.262L188.615 199.56L169.014 208.458Z" fill="white"/>
<path d="M180.926 310V244.545H203.043C208.156 244.545 212.354 245.419 215.635 247.166C218.916 248.892 221.345 251.268 222.922 254.293C224.499 257.319 225.287 260.76 225.287 264.616C225.287 268.473 224.499 271.893 222.922 274.876C221.345 277.859 218.927 280.202 215.667 281.907C212.407 283.59 208.241 284.432 203.17 284.432H185.273V277.273H202.915C206.409 277.273 209.222 276.761 211.352 275.739C213.504 274.716 215.06 273.267 216.018 271.392C216.999 269.496 217.489 267.237 217.489 264.616C217.489 261.996 216.999 259.705 216.018 257.745C215.038 255.785 213.472 254.272 211.32 253.207C209.168 252.12 206.324 251.577 202.787 251.577H188.852V310H180.926ZM211.736 280.597L227.844 310H218.639L202.787 280.597H211.736ZM238.494 310V244.545H277.997V251.577H246.421V273.693H275.952V280.724H246.421V302.969H278.509V310H238.494ZM292.284 310V244.545H331.786V251.577H300.21V273.693H329.741V280.724H300.21V302.969H332.298V310H292.284Z" fill="white"/>
</svg>
