<svg width="42" height="42" viewBox="0 0 42 42" fill="none" xmlns="http://www.w3.org/2000/svg">
<path d="M13.4055 18.5078C13.3459 17.9496 13.0945 17.5149 12.6513 17.2038C12.2124 16.8928 11.6413 16.7372 10.9382 16.7372C10.4439 16.7372 10.0199 16.8118 9.66619 16.9609C9.3125 17.1101 9.0419 17.3125 8.8544 17.5682C8.6669 17.8239 8.57102 18.1158 8.56676 18.4439C8.56676 18.7166 8.62855 18.9531 8.75213 19.1534C8.87997 19.3537 9.05256 19.5241 9.26989 19.6648C9.48722 19.8011 9.72798 19.9162 9.99219 20.0099C10.2564 20.1037 10.5227 20.1825 10.7912 20.2464L12.0185 20.5533C12.5128 20.6683 12.9879 20.8239 13.4439 21.0199C13.9041 21.2159 14.3153 21.4631 14.6776 21.7614C15.044 22.0597 15.3338 22.4197 15.5469 22.8416C15.7599 23.2635 15.8665 23.7578 15.8665 24.3246C15.8665 25.0916 15.6705 25.767 15.2784 26.3509C14.8864 26.9304 14.3196 27.3842 13.5781 27.7124C12.8409 28.0362 11.9482 28.1982 10.8999 28.1982C9.88139 28.1982 8.99716 28.0405 8.24716 27.7251C7.50142 27.4098 6.91761 26.9496 6.49574 26.3445C6.07813 25.7393 5.85227 25.0021 5.81818 24.1328H8.15128C8.18537 24.5888 8.32599 24.968 8.57315 25.2706C8.82031 25.5732 9.14205 25.799 9.53835 25.9482C9.93892 26.0973 10.3864 26.1719 10.8807 26.1719C11.3963 26.1719 11.848 26.0952 12.2358 25.9418C12.6278 25.7841 12.9347 25.5668 13.1562 25.2898C13.3778 25.0085 13.4908 24.6804 13.495 24.3054C13.4908 23.9645 13.3906 23.6832 13.1946 23.4616C12.9986 23.2358 12.7237 23.0483 12.37 22.8991C12.0206 22.7457 11.6115 22.6094 11.1428 22.4901L9.65341 22.1065C8.57528 21.8295 7.72301 21.4098 7.09659 20.8473C6.47443 20.2805 6.16335 19.5284 6.16335 18.5909C6.16335 17.8196 6.37216 17.1442 6.78977 16.5646C7.21165 15.9851 7.7848 15.5355 8.50923 15.2159C9.23366 14.892 10.054 14.7301 10.9702 14.7301C11.8991 14.7301 12.7131 14.892 13.4119 15.2159C14.1151 15.5355 14.6669 15.9808 15.0675 16.5518C15.468 17.1186 15.6747 17.7706 15.6875 18.5078H13.4055ZM22.225 28.1918C21.2406 28.1918 20.3904 27.9872 19.6745 27.5781C18.9629 27.1648 18.4153 26.581 18.0318 25.8267C17.6483 25.0682 17.4565 24.1754 17.4565 23.1484C17.4565 22.1385 17.6483 21.2521 18.0318 20.4893C18.4196 19.7223 18.9608 19.1257 19.6554 18.6996C20.35 18.2692 21.166 18.054 22.1035 18.054C22.7086 18.054 23.2797 18.152 23.8166 18.348C24.3578 18.5398 24.8351 18.8381 25.2484 19.2429C25.666 19.6477 25.9941 20.1634 26.2328 20.7898C26.4714 21.4119 26.5907 22.1534 26.5907 23.0142V23.7237H18.5431V22.1641H24.3727C24.3684 21.7209 24.2726 21.3267 24.0851 20.9815C23.8976 20.6321 23.6355 20.3572 23.2988 20.157C22.9664 19.9567 22.5787 19.8565 22.1355 19.8565C21.6625 19.8565 21.247 19.9716 20.889 20.2017C20.5311 20.4276 20.252 20.7259 20.0517 21.0966C19.8556 21.4631 19.7555 21.8658 19.7512 22.3047V23.6662C19.7512 24.2372 19.8556 24.7273 20.0645 25.1364C20.2733 25.5412 20.5652 25.8523 20.9402 26.0696C21.3152 26.2827 21.7541 26.3892 22.2569 26.3892C22.5936 26.3892 22.8983 26.3423 23.171 26.2486C23.4437 26.1506 23.6802 26.0078 23.8805 25.8203C24.0808 25.6328 24.2321 25.4006 24.3343 25.1236L26.4949 25.3665C26.3585 25.9375 26.0985 26.4361 25.715 26.8622C25.3358 27.2841 24.85 27.6122 24.2576 27.8466C23.6653 28.0767 22.9877 28.1918 22.225 28.1918ZM30.8622 22.2472V28H28.5483V18.1818H30.7599V19.8501H30.875C31.1009 19.3004 31.4609 18.8636 31.9553 18.5398C32.4538 18.2159 33.0696 18.054 33.8026 18.054C34.4801 18.054 35.0703 18.1989 35.5732 18.4886C36.0803 18.7784 36.4723 19.1982 36.7493 19.7479C37.0305 20.2976 37.169 20.9645 37.1648 21.7486V28H34.8509V22.1065C34.8509 21.4503 34.6804 20.9368 34.3395 20.5661C34.0028 20.1953 33.5362 20.0099 32.9396 20.0099C32.5348 20.0099 32.1747 20.0994 31.8594 20.2784C31.5483 20.4531 31.3033 20.7067 31.1243 21.0391C30.9496 21.3714 30.8622 21.7741 30.8622 22.2472Z" fill="black"/>
</svg>
