<svg width="503" height="106" viewBox="0 0 503 106" fill="none" xmlns="http://www.w3.org/2000/svg">
<path d="M0.855469 79.2441C8.76888 85.8034 17.7614 89.083 27.833 89.083C33.5459 89.083 37.8411 88.1097 40.7188 86.1631C43.5964 84.1742 45.0352 81.6351 45.0352 78.5459C45.0352 75.8799 43.8926 73.362 41.6074 70.9922C39.3223 68.6224 33.292 65.4062 23.5166 61.3438C8.15527 54.8268 0.474609 45.3477 0.474609 32.9062C0.474609 23.7656 3.94466 16.6774 10.8848 11.6416C17.8672 6.56348 27.0924 4.02441 38.5605 4.02441C48.1667 4.02441 56.2282 5.27279 62.7451 7.76953V27.4473C56.1436 22.9616 48.4206 20.7188 39.5762 20.7188C34.4134 20.7188 30.2874 21.6709 27.1982 23.5752C24.109 25.4372 22.5645 27.9551 22.5645 31.1289C22.5645 33.668 23.6224 36.0166 25.7383 38.1748C27.8542 40.2907 33.0804 43.1683 41.417 46.8076C51.1924 50.9971 57.8997 55.4193 61.5391 60.0742C65.2207 64.7292 67.0615 70.2728 67.0615 76.7051C67.0615 86.1419 63.7184 93.3359 57.0322 98.2871C50.346 103.238 40.8457 105.714 28.5312 105.714C17.2747 105.714 8.04948 103.894 0.855469 100.255V79.2441ZM143.868 74.6738H97.6572C98.3766 85.5495 104.936 90.9873 117.335 90.9873C125.079 90.9873 131.913 89.083 137.838 85.2744V100.318C131.448 103.915 123.069 105.714 112.701 105.714C101.529 105.714 92.833 102.561 86.6123 96.2559C80.4339 89.9505 77.3447 81.1696 77.3447 69.9131C77.3447 58.6989 80.6455 49.6006 87.2471 42.6182C93.8486 35.5934 102.143 32.0811 112.13 32.0811C122.075 32.0811 129.84 35.1068 135.426 41.1582C141.054 47.1673 143.868 55.4404 143.868 65.9775V74.6738ZM124.762 61.8516C124.762 51.3568 120.509 46.1094 112.003 46.1094C108.491 46.1094 105.38 47.5482 102.672 50.4258C99.9635 53.3034 98.2708 57.112 97.5938 61.8516H124.762ZM223.912 104H203.536V64.835C203.536 53.4938 199.452 47.8232 191.285 47.8232C187.392 47.8232 184.155 49.3467 181.573 52.3936C178.992 55.3981 177.701 59.249 177.701 63.9463V104H157.198V33.7949H177.701V44.9668H177.955C183.076 36.3763 190.608 32.0811 200.553 32.0811C216.126 32.0811 223.912 41.7295 223.912 61.0264V104ZM239.02 79.2441C246.933 85.8034 255.925 89.083 265.997 89.083C271.71 89.083 276.005 88.1097 278.883 86.1631C281.76 84.1742 283.199 81.6351 283.199 78.5459C283.199 75.8799 282.057 73.362 279.771 70.9922C277.486 68.6224 271.456 65.4062 261.681 61.3438C246.319 54.8268 238.639 45.3477 238.639 32.9062C238.639 23.7656 242.109 16.6774 249.049 11.6416C256.031 6.56348 265.257 4.02441 276.725 4.02441C286.331 4.02441 294.392 5.27279 300.909 7.76953V27.4473C294.308 22.9616 286.585 20.7188 277.74 20.7188C272.577 20.7188 268.451 21.6709 265.362 23.5752C262.273 25.4372 260.729 27.9551 260.729 31.1289C260.729 33.668 261.786 36.0166 263.902 38.1748C266.018 40.2907 271.244 43.1683 279.581 46.8076C289.356 50.9971 296.064 55.4193 299.703 60.0742C303.385 64.7292 305.226 70.2728 305.226 76.7051C305.226 86.1419 301.882 93.3359 295.196 98.2871C288.51 103.238 279.01 105.714 266.695 105.714C255.439 105.714 246.214 103.894 239.02 100.255V79.2441ZM419.864 33.7949L399.552 104H378.033L367.242 61.8516C366.523 59.0163 366.142 56.1175 366.1 53.1553H365.655C365.359 56.4984 364.915 59.3125 364.322 61.5977L352.706 104H331.441L311.446 33.7949H332.394L342.613 80.3867C343.036 82.2487 343.375 84.8089 343.629 88.0674H344.073C344.285 84.9359 344.687 82.291 345.279 80.1328L357.848 33.7949H377.271L388.507 80.4502C388.803 81.7197 389.12 84.3011 389.459 88.1943H389.967C390.094 85.9515 390.453 83.3701 391.046 80.4502L400.821 33.7949H419.864ZM450.904 95.5576V104H430.401V0.0888672H450.904V44.5225H451.158C456.533 36.2282 464.192 32.0811 474.137 32.0811C482.981 32.0811 489.9 35.1702 494.894 41.3486C499.929 47.527 502.447 56.054 502.447 66.9297C502.447 78.5671 499.57 87.9404 493.814 95.0498C488.059 102.159 480.421 105.714 470.899 105.714C462.182 105.714 455.602 102.328 451.158 95.5576H450.904ZM450.587 73.6582C450.587 78.2708 451.962 82.1429 454.713 85.2744C457.464 88.4059 460.955 89.9717 465.187 89.9717C470.307 89.9717 474.285 87.9827 477.12 84.0049C479.998 80.027 481.437 74.3988 481.437 67.1201C481.437 61.0687 480.125 56.3503 477.501 52.9648C474.92 49.5371 471.217 47.8232 466.393 47.8232C461.822 47.8232 458.035 49.5371 455.03 52.9648C452.068 56.3926 450.587 60.7936 450.587 66.168V73.6582Z" fill="url(#paint0_linear_122_2)"/>
<defs>
<linearGradient id="paint0_linear_122_2" x1="3.25993" y1="19.3137" x2="534.066" y2="89.7372" gradientUnits="userSpaceOnUse">
<stop stop-color="#049568" stop-opacity="0.95"/>
<stop offset="0.403186" stop-color="#26D29D"/>
<stop offset="1" stop-color="#9ED36A" stop-opacity="0.51"/>
</linearGradient>
</defs>
</svg>
